<svg width="112" height="101" viewBox="0 0 112 101" fill="none" xmlns="http://www.w3.org/2000/svg">
<path d="M46.1387 28.5L46.0387 53.2V69.5C46.0387 79.9 43.772 87.6667 39.2387 92.8C34.772 97.9333 29.1387 100.5 22.3387 100.5C15.6053 100.5 10.3387 98.3667 6.53867 94.1C2.80534 89.7667 0.938672 84.9667 0.938672 79.7C0.938672 74.4333 2.53867 70.0667 5.73867 66.6C8.93867 63.0667 12.6387 61.3 16.8387 61.3C21.1053 61.3 24.472 62.5667 26.9387 65.1C29.4053 67.6333 30.6387 70.7333 30.6387 74.4C30.6387 78.0667 29.372 80.7333 26.8387 82.4C26.0387 82.8667 25.4053 83.1 24.9387 83.1C23.9387 83.1 23.5053 82.6 23.6387 81.6C23.6387 81.5333 23.7387 81.1333 23.9387 80.4C24.3387 78.6 24.5387 76.8333 24.5387 75.1C24.5387 73.3 23.8053 71.6667 22.3387 70.2C20.872 68.6667 18.972 67.9 16.6387 67.9C14.3053 67.9 12.3053 69.0667 10.6387 71.4C8.97201 73.6667 8.13867 76.5333 8.13867 80C8.13867 83.5333 9.37201 86.7 11.8387 89.5C14.3053 92.3 17.672 93.7 21.9387 93.7C27.3387 93.7 31.5387 91.5333 34.5387 87.2C37.5387 82.9333 39.0387 77 39.0387 69.4C39.0387 51.2 38.972 37.5333 38.8387 28.4C38.772 19.2667 38.7387 13.0667 38.7387 9.79999C34.872 10.4 31.572 10.7 28.8387 10.7C14.4387 10.7 7.23867 8.6 7.23867 4.4C7.23867 2.06666 8.50534 0.899996 11.0387 0.899996C11.372 0.899996 13.5387 1.33333 17.5387 2.2C21.5387 3 25.272 3.39999 28.7387 3.39999C32.272 3.39999 36.4053 3 41.1387 2.2C45.9387 1.33333 48.572 0.899996 49.0387 0.899996C51.8387 0.899996 53.2387 2.03333 53.2387 4.29999C53.2387 6.5 50.9387 8 46.3387 8.8V10.2L46.1387 28.5ZM82.4559 62.4C81.4559 62.7333 80.6225 62.7333 79.9559 62.4C79.2892 62.0667 78.9559 61.6333 78.9559 61.1C78.9559 60.5667 79.1225 59.9667 79.4559 59.3C79.7892 58.5667 80.0892 57.8667 80.3559 57.2C81.0225 55.6 80.7559 54.3667 79.5559 53.5C78.1559 52.5667 76.7559 52.1 75.3559 52.1C73.9559 52.1 72.6225 52.7 71.3559 53.9C70.1559 55.0333 69.5559 56.6333 69.5559 58.7C69.5559 61.7 71.0225 64.6 73.9559 67.4C76.8892 70.1333 80.8892 71.5 85.9559 71.5C91.0225 71.5 95.2225 70 98.5559 67C101.956 64 103.656 60.3333 103.656 56C103.656 50.1333 99.2559 44.9667 90.4559 40.5C89.9892 40.2333 88.9559 39.7333 87.3559 39C85.7559 38.2 84.6559 37.6333 84.0559 37.3C83.4559 36.9667 82.4559 36.4333 81.0559 35.7C79.7225 34.9667 78.6559 34.3333 77.8559 33.8C77.1225 33.2667 76.2225 32.6333 75.1559 31.9C73.5559 30.8333 71.8559 29.3 70.0559 27.3C67.5225 24.2333 66.2559 20.6333 66.2559 16.5C66.2559 12.3 68.2892 8.6 72.3559 5.4C76.4225 2.13333 81.1892 0.499995 86.6559 0.499995C92.1892 0.499995 96.8892 1.53333 100.756 3.6C104.623 5.66667 106.556 8 106.556 10.6C106.556 12.2 105.889 13.2667 104.556 13.8C104.089 13.9333 103.489 14 102.756 14C102.023 14 101.289 13.7667 100.556 13.3C99.8892 12.8333 99.0892 12.2 98.1559 11.4C97.2892 10.6 96.4892 9.96666 95.7559 9.5C93.7559 8.16666 91.0225 7.49999 87.5559 7.49999C84.0892 7.49999 80.9892 8.4 78.2559 10.2C75.5892 12 74.2559 14.2333 74.2559 16.9C74.2559 19.5 75.5225 21.9333 78.0559 24.2C80.3225 26.2 83.8892 28.5333 88.7559 31.2C93.6225 33.8 96.8559 35.6 98.4559 36.6C102.389 38.9333 105.556 41.8 107.956 45.2C110.423 48.5333 111.656 52.1333 111.656 56C111.656 62.1333 109.256 67.4333 104.456 71.9C99.7225 76.3 93.6559 78.5 86.2559 78.5C78.8559 78.5 73.0225 76.5667 68.7559 72.7C64.4892 68.8333 62.3559 64.5667 62.3559 59.9C62.3559 55.2333 63.5892 51.6333 66.0559 49.1C68.5225 46.5 71.6225 45.2 75.3559 45.2C79.0892 45.2 81.9559 46.1333 83.9559 48C85.9559 49.8667 86.9559 52 86.9559 54.4C86.9559 56.8 86.3225 58.7667 85.0559 60.3C84.3225 61.3 83.4559 62 82.4559 62.4Z" fill="#B392AC"/>
</svg>
